<svg width="530"
     id='logo'
     height="86"
     viewBox="0 0 530 86"
     xmlns="http://www.w3.org/2000/svg">
      <path d="M38.816 40.912C38.816 41.872 37.44 43.28 34.688 45.136C31.936 46.992 27.616 49.648 21.728 53.104C18.144 55.152 15.552 56.688 13.952 57.712C15.744 59.248 17.824 60.72 20.192 62.128C22.56 63.536 23.936 64.336 24.32 64.528C28.032 66.576 29.888 67.888 29.888 68.464C29.888 70.064 29.12 71.472 27.584 72.688C26.112 73.904 24.448 74.512 22.592 74.512C21.632 74.512 19.232 73.392 15.392 71.152C11.552 68.912 8.032 66.512 4.832 63.952C1.632 61.328 0.0320003 59.344 0.0320003 58C0.0320003 56.784 0.608 55.696 1.76 54.736C2.912 53.712 4.928 52.336 7.808 50.608C11.136 48.624 13.76 46.96 15.68 45.616C20.096 42.48 23.168 40.368 24.896 39.28C26.624 38.128 27.904 37.424 28.736 37.168C29.632 36.848 30.688 36.688 31.904 36.688C33.76 36.688 35.36 37.04 36.704 37.744C38.112 38.448 38.816 39.504 38.816 40.912ZM75.4531 10L74.9844 24.2031H71.9844C71.1719 24.2031 70.5156 24.3281 70.0156 24.5781C69.5469 24.7969 69.3125 25.4062 69.3125 26.4062V52.2344C69.3125 52.3906 69.3281 52.5312 69.3594 52.6562C69.3906 52.7812 69.5312 52.7969 69.7812 52.7031C75.4375 49.5469 78.5469 47.7031 79.1094 47.1719C79.6719 46.6094 80.0938 46.1875 80.375 45.9062C80.6875 45.625 80.9375 45.3125 81.125 44.9688C81.5625 44.3125 81.7812 43.3438 81.7812 42.0625V34.1875L97.1562 34L96.875 48.3906H87.9219C85.7656 48.3906 84.0156 48.6562 82.6719 49.1875L93.2188 67.1406C93.5938 67.7656 94.1406 68.0781 94.8594 68.0781H100.016L100.344 82L84.5 82.0938L84.6875 68.2656H89.0938C89.5625 68.2656 89.5938 67.9531 89.1875 67.3281L79.6719 50.5938L69.5938 56.8281C69.4062 56.9219 69.3125 57.0938 69.3125 57.3438V64.3281C69.3125 65.2969 69.6094 66.1875 70.2031 67C70.7969 67.7812 71.7188 68.1719 72.9688 68.1719H76.3438L76.25 82H59.4219L59.7969 68.0781H62.8906C64.1406 68.0781 65 67.5312 65.4688 66.4375C65.6562 66.0312 65.75 65.5156 65.75 64.8906V26.6875C65.75 25.6875 65.5156 25.0625 65.0469 24.8125C64.6094 24.5312 64.0781 24.3906 63.4531 24.3906H59.5156V10.0938L75.4531 10ZM121.921 82.96C118.465 82.96 115.361 82.32 112.609 81.04C109.921 79.696 107.777 77.904 106.177 75.664C104.577 73.424 103.777 70.896 103.777 68.08C103.777 63.536 105.633 59.952 109.345 57.328C113.057 54.64 117.985 52.816 124.129 51.856L136.129 50.032V48.688C136.129 46.384 135.649 44.624 134.689 43.408C133.729 42.192 131.969 41.584 129.409 41.584C127.617 41.584 126.145 41.936 124.993 42.64C123.905 43.344 123.041 44.304 122.401 45.52C121.825 46.352 121.025 46.768 120.001 46.768H109.249C108.545 46.768 108.001 46.576 107.617 46.192C107.233 45.744 107.073 45.232 107.137 44.656C107.137 43.504 107.553 42.192 108.385 40.72C109.281 39.184 110.625 37.68 112.417 36.208C114.209 34.736 116.513 33.52 119.329 32.56C122.145 31.6 125.537 31.12 129.505 31.12C133.665 31.12 137.217 31.6 140.161 32.56C143.105 33.52 145.473 34.864 147.265 36.592C149.121 38.32 150.497 40.368 151.393 42.736C152.289 45.04 152.737 47.6 152.737 50.416V79.6C152.737 80.304 152.481 80.88 151.969 81.328C151.521 81.776 150.977 82 150.337 82H139.201C138.497 82 137.921 81.776 137.473 81.328C137.025 80.88 136.801 80.304 136.801 79.6V76.24C135.969 77.456 134.849 78.576 133.441 79.6C132.033 80.624 130.369 81.424 128.449 82C126.593 82.64 124.417 82.96 121.921 82.96ZM126.433 72.016C128.289 72.016 129.953 71.632 131.425 70.864C132.961 70.032 134.145 68.784 134.977 67.12C135.873 65.392 136.321 63.248 136.321 60.688V59.344L128.161 60.784C125.153 61.296 122.945 62.096 121.537 63.184C120.193 64.208 119.521 65.424 119.521 66.832C119.521 67.92 119.841 68.848 120.481 69.616C121.121 70.384 121.953 70.992 122.977 71.44C124.001 71.824 125.153 72.016 126.433 72.016ZM167.218 82C166.578 82 166.034 81.808 165.586 81.424C165.202 80.976 165.01 80.432 165.01 79.792V34.288C165.01 33.648 165.202 33.136 165.586 32.752C166.034 32.304 166.578 32.08 167.218 32.08H171.538C172.178 32.08 172.69 32.304 173.074 32.752C173.522 33.136 173.746 33.648 173.746 34.288V37.648C175.218 35.664 177.074 34.096 179.314 32.944C181.554 31.728 184.242 31.12 187.378 31.12C194.61 31.056 199.73 34 202.738 39.952C204.21 37.264 206.354 35.12 209.17 33.52C211.986 31.92 215.186 31.12 218.77 31.12C222.098 31.12 225.106 31.888 227.794 33.424C230.546 34.96 232.69 37.296 234.226 40.432C235.826 43.504 236.626 47.376 236.626 52.048V79.792C236.626 80.432 236.402 80.976 235.954 81.424C235.57 81.808 235.058 82 234.418 82H229.906C229.266 82 228.722 81.808 228.274 81.424C227.89 80.976 227.698 80.432 227.698 79.792V52.912C227.698 49.328 227.186 46.512 226.162 44.464C225.138 42.416 223.762 40.976 222.034 40.144C220.306 39.312 218.418 38.896 216.37 38.896C214.706 38.896 213.01 39.312 211.282 40.144C209.554 40.976 208.114 42.416 206.962 44.464C205.874 46.512 205.33 49.328 205.33 52.912V79.792C205.33 80.432 205.106 80.976 204.658 81.424C204.274 81.808 203.762 82 203.122 82H198.61C197.97 82 197.426 81.808 196.978 81.424C196.594 80.976 196.402 80.432 196.402 79.792V52.912C196.402 49.328 195.858 46.512 194.77 44.464C193.682 42.416 192.274 40.976 190.546 40.144C188.818 39.312 186.994 38.896 185.074 38.896C183.41 38.896 181.714 39.312 179.986 40.144C178.258 40.976 176.818 42.416 175.666 44.464C174.578 46.512 174.034 49.296 174.034 52.816V79.792C174.034 80.432 173.81 80.976 173.362 81.424C172.978 81.808 172.466 82 171.826 82H167.218ZM262.899 82.96C258.355 82.96 254.739 81.616 252.051 78.928C249.363 76.24 248.019 72.624 248.019 68.08C248.019 63.408 249.523 59.728 252.531 57.04C255.603 54.288 259.699 52.912 264.819 52.912C267.763 52.912 270.387 53.328 272.691 54.16C274.995 54.992 276.851 56.144 278.259 57.616V50.32C278.259 45.648 277.011 41.936 274.515 39.184C272.083 36.368 268.787 34.96 264.627 34.96C259.763 34.96 255.379 37.008 251.475 41.104C250.195 41.104 249.555 40.528 249.555 39.376C249.555 38.672 250.259 37.744 251.667 36.592C253.139 35.376 255.059 34.32 257.427 33.424C259.795 32.528 262.323 32.08 265.011 32.08C270.067 32.08 274.131 33.744 277.203 37.072C280.275 40.4 281.811 44.816 281.811 50.32V79.024C281.811 81.264 281.043 82.384 279.507 82.384C279.123 82.384 278.707 82.256 278.259 82V75.856C276.467 78.032 274.227 79.76 271.539 81.04C268.851 82.32 265.971 82.96 262.899 82.96ZM262.515 80.08C265.075 80.08 267.571 79.568 270.003 78.544C272.435 77.456 274.419 75.952 275.955 74.032C277.491 72.112 278.259 69.904 278.259 67.408V64.24C278.259 61.488 276.883 59.408 274.131 58C271.443 56.528 268.179 55.792 264.339 55.792C260.435 55.792 257.331 56.912 255.027 59.152C252.787 61.392 251.667 64.4 251.667 68.176C251.667 71.824 252.627 74.736 254.547 76.912C256.531 79.024 259.187 80.08 262.515 80.08ZM316.642 82.96C309.09 82.96 303.074 80.912 298.594 76.816C294.114 72.72 291.778 66.64 291.586 58.576C291.586 58.128 291.586 57.552 291.586 56.848C291.586 56.144 291.586 55.6 291.586 55.216C291.778 50.16 292.898 45.84 294.946 42.256C297.058 38.608 299.938 35.856 303.586 34C307.298 32.08 311.618 31.12 316.546 31.12C322.178 31.12 326.818 32.24 330.466 34.48C334.178 36.72 336.962 39.76 338.818 43.6C340.674 47.44 341.602 51.824 341.602 56.752V59.056C341.602 59.76 341.346 60.336 340.833 60.784C340.386 61.232 339.842 61.456 339.202 61.456H308.482C308.482 61.52 308.482 61.616 308.482 61.744C308.482 61.872 308.482 62 308.482 62.128C308.546 63.984 308.866 65.68 309.442 67.216C310.018 68.752 310.914 69.968 312.13 70.864C313.346 71.76 314.818 72.208 316.546 72.208C317.826 72.208 318.882 72.016 319.714 71.632C320.61 71.184 321.346 70.704 321.922 70.192C322.498 69.616 322.946 69.136 323.266 68.752C323.842 68.112 324.29 67.728 324.61 67.6C324.994 67.408 325.57 67.312 326.338 67.312H338.242C338.882 67.312 339.394 67.504 339.778 67.888C340.226 68.208 340.418 68.688 340.354 69.328C340.29 70.416 339.746 71.728 338.722 73.264C337.698 74.8 336.194 76.336 334.21 77.872C332.29 79.344 329.858 80.56 326.914 81.52C323.97 82.48 320.546 82.96 316.642 82.96ZM308.482 51.952H324.706V51.76C324.706 49.712 324.386 47.92 323.746 46.384C323.17 44.848 322.242 43.664 320.962 42.832C319.746 42 318.274 41.584 316.546 41.584C314.818 41.584 313.346 42 312.13 42.832C310.978 43.664 310.082 44.848 309.442 46.384C308.802 47.92 308.482 49.712 308.482 51.76V51.952ZM361.354 38.896L361.834 36.592L359.722 13.456C364.97 5.968 371.594 1.584 379.594 0.303999C385.418 1.328 389.834 3.568 392.842 7.024C397.706 3.12 402.794 0.879995 408.106 0.303999C416.682 1.968 421.994 7.024 424.042 15.472C423.018 17.584 421.226 19.056 418.666 19.888C416.17 20.72 413.482 20.784 410.602 20.08C410.41 17.072 409.93 14.736 409.162 13.072C408.458 11.344 407.178 9.67999 405.322 8.08C402.762 8.656 400.65 9.84 398.986 11.632C399.37 17.392 399.114 25.84 398.218 36.976L417.514 34.48C419.754 36.336 419.722 39.184 417.418 43.024L397.642 43.6C396.554 55.248 395.05 67.6 393.13 80.656C390.442 81.872 387.402 82.224 384.01 81.712C380.618 81.2 378.378 80.048 377.29 78.256C381.578 66.096 384.874 54.64 387.178 43.888L382.186 44.08L370.474 45.232C369.45 56.048 367.946 67.856 365.962 80.656C363.338 81.872 360.33 82.224 356.938 81.712C353.546 81.2 351.306 80.048 350.218 78.256C353.802 68.4 356.97 57.744 359.722 46.288L347.53 47.536C345.289 44.912 345.322 42 347.626 38.8L361.354 38.896ZM381.418 39.088L388.426 38.224L388.714 36.592L386.986 15.376H386.89C385.354 11.472 382.474 9.04 378.25 8.08C376.01 8.592 373.994 9.776 372.202 11.632C372.586 18.032 372.234 27.152 371.146 38.992L381.418 39.088ZM442.767 85.456C440.975 85.456 439.567 85.104 438.543 84.4C437.519 83.696 437.007 82.672 437.007 81.328C437.007 80.176 443.087 71.76 455.247 56.08C461.519 47.888 468.143 38.736 475.119 28.624C477.871 24.592 479.919 21.68 481.263 19.888C482.671 18.096 483.951 16.752 485.103 15.856C486.319 14.96 487.567 14.512 488.847 14.512C490.511 14.512 491.759 14.928 492.591 15.76C493.487 16.592 493.935 17.648 493.935 18.928C493.935 20.144 493.583 21.264 492.879 22.288L485.391 33.04C483.855 35.216 481.903 37.84 479.535 40.912C470.191 53.392 462.319 63.952 455.919 72.592C452.719 76.944 450.127 80.176 448.143 82.288C446.223 84.4 444.431 85.456 442.767 85.456ZM529.368 55.696C528.728 57.68 524.696 60.592 517.272 64.432C509.912 68.208 502.36 71.728 494.616 74.992C493.912 75.568 492.6 75.856 490.68 75.856C488.504 75.856 486.904 75.568 485.88 74.992C484.92 74.416 484.44 73.52 484.44 72.304C484.44 71.536 484.76 70.768 485.4 70C486.104 69.168 487.064 68.464 488.28 67.888L514.008 55.312C509.4 52.688 505.08 49.968 501.048 47.152C497.016 44.336 495 42.32 495 41.104C495 39.824 495.576 38.672 496.728 37.648C497.88 36.624 499.32 36.112 501.048 36.112C502.008 36.112 503.064 36.304 504.216 36.688C505.432 37.072 506.488 37.648 507.384 38.416C510.648 41.104 514.68 44.016 519.48 47.152L525.624 51.472C526.904 52.048 527.832 52.688 528.408 53.392C529.048 54.032 529.368 54.8 529.368 55.696Z"
            fill="#ffffff" />
</svg>