<svg width="32" height="32" viewBox="0 0 32 32" fill="none" xmlns="http://www.w3.org/2000/svg">
<path d="M20.0004 29.3333V24C20.1859 22.3297 19.7069 20.6535 18.667 19.3333C22.667 19.3333 26.667 16.6667 26.667 12C26.7737 10.3333 26.307 8.69332 25.3337 7.33332C25.707 5.79999 25.707 4.19999 25.3337 2.66666C25.3337 2.66666 24.0004 2.66666 21.3337 4.66666C17.8137 3.99999 14.187 3.99999 10.667 4.66666C8.00037 2.66666 6.66704 2.66666 6.66704 2.66666C6.26704 4.19999 6.26704 5.79999 6.66704 7.33332C5.69621 8.68783 5.225 10.337 5.33371 12C5.33371 16.6667 9.33371 19.3333 13.3337 19.3333C12.8137 19.9867 12.427 20.7333 12.2004 21.5333C11.9737 22.3333 11.907 23.1733 12.0004 24V29.3333" stroke="black" stroke-width="2" stroke-linecap="round" stroke-linejoin="round"/>
<path d="M12.0003 24C5.98699 26.6667 5.33366 21.3333 2.66699 21.3333" stroke="black" stroke-width="2" stroke-linecap="round" stroke-linejoin="round"/>
</svg>
