<svg width="471" height="100" viewBox="0 0 471 100" fill="none" xmlns="http://www.w3.org/2000/svg">
<path d="M10.75 47.75L31.8438 34.7188V43.5L18.0938 51.25L31.8438 59.7188V68.4688L10.75 54.4375V47.75ZM61.3438 20.1875H69.3438L50.625 73.3125H42.625L61.3438 20.1875ZM80.0625 59.7188L93.7812 51.25L80.0625 43.5V34.7188L101.156 47.75V54.4375L80.0625 68.4688V59.7188Z" fill="black"/>
<path d="M137.5 7L137.5 84" stroke="black" stroke-width="3"/>
<path d="M179.68 72.2344C177.883 72.0781 175.591 72 172.805 72H169.719V19.8906L171.281 19.9688C172.375 20.0208 173.195 20.0469 173.742 20.0469H174.875C177.167 20.0469 178.768 19.9427 179.68 19.7344V41.8047L195.5 19.8906C197.167 19.9948 198.573 20.0469 199.719 20.0469H201.867C204.549 20.0469 206.464 19.9427 207.609 19.7344L192.531 39.4219L207.375 68.875C208 70.3073 208.586 71.349 209.133 72H206.75C201.255 72 197.831 72.1042 196.477 72.3125C196.19 70.5677 195.799 69.0443 195.305 67.7422L185.344 48.7578L179.68 56.1797V72.2344ZM242.336 69.5781C238.638 71.5833 235.292 72.5859 232.297 72.5859C229.302 72.5859 226.737 72.3125 224.602 71.7656C222.466 71.1927 220.656 70.3594 219.172 69.2656C216.151 67.0521 214.641 63.849 214.641 59.6562C214.641 55.9062 216.49 52.7812 220.188 50.2812C224.198 47.5729 229.641 46.2188 236.516 46.2188L238.078 46.2578C238.391 46.2839 238.742 46.3099 239.133 46.3359C239.523 46.3359 239.875 46.362 240.188 46.4141C239.979 42.2474 238.182 39.8125 234.797 39.1094C233.677 38.875 232.479 38.7578 231.203 38.7578C229.953 38.7578 228.716 38.875 227.492 39.1094C226.294 39.3177 225.122 39.6042 223.977 39.9688C221.451 40.776 219.641 41.7005 218.547 42.7422L218.43 42.6641L217.258 34.0312C221.867 31.6094 226.906 30.3984 232.375 30.3984C240.865 30.3984 246.294 33.4583 248.664 39.5781C249.419 41.5312 249.797 43.7318 249.797 46.1797V60.3203C249.797 63.3411 250.865 65.3984 253 66.4922L245.93 72.9766C244.445 72.1953 243.247 71.0625 242.336 69.5781ZM240.227 53.4453C239.523 53.3151 238.794 53.25 238.039 53.25H236.477C230.721 53.25 227.062 54.526 225.5 57.0781C225.031 57.8333 224.797 58.6276 224.797 59.4609C224.797 60.2943 224.94 61.0365 225.227 61.6875C225.539 62.3125 226.047 62.8333 226.75 63.25C228.104 64.0312 230.109 64.4219 232.766 64.4219C235.448 64.4219 237.948 63.7839 240.266 62.5078C240.24 62.2214 240.227 61.9219 240.227 61.6094V53.4453ZM272.57 60.7109C272.57 66.5703 272.674 70.3333 272.883 72H262.688V31.1797H272.57V34.6953C276.138 31.8307 279.797 30.3984 283.547 30.3984C287.974 30.3984 291.19 32.3125 293.195 36.1406C295.201 34.0833 296.867 32.7292 298.195 32.0781C300.409 30.9583 302.622 30.3984 304.836 30.3984C307.076 30.3984 308.977 30.776 310.539 31.5312C312.102 32.2865 313.391 33.3542 314.406 34.7344C316.464 37.5208 317.492 41.349 317.492 46.2188V61.7656C317.492 66.1667 317.557 68.8099 317.688 69.6953C317.818 70.5807 317.987 71.1536 318.195 71.4141C318.43 71.6745 318.625 71.9089 318.781 72.1172L318.703 72.2734C316.62 72.0911 315.083 72 314.094 72H311.164C310.201 72 309.016 72.0391 307.609 72.1172V50.9844C307.609 44.8906 306.672 41.2708 304.797 40.125C304.172 39.7604 303.43 39.5781 302.57 39.5781C301.737 39.5781 300.995 39.6823 300.344 39.8906C299.693 40.0729 299.081 40.3854 298.508 40.8281C297.544 41.5312 296.451 42.9115 295.227 44.9688C295.253 45.1771 295.266 45.3854 295.266 45.5938C295.266 45.8021 295.266 49.2396 295.266 55.9062C295.266 62.5729 295.422 67.9375 295.734 72C293.521 72 291.633 72 290.07 72C288.534 72 287.062 72.0391 285.656 72.1172V50.9453C285.656 46.7005 285.396 43.9401 284.875 42.6641C284.38 41.388 283.846 40.5547 283.273 40.1641C282.701 39.7734 281.997 39.5781 281.164 39.5781C277.727 39.5781 274.862 41.2318 272.57 44.5391V60.7109ZM355.773 69.5781C352.076 71.5833 348.729 72.5859 345.734 72.5859C342.74 72.5859 340.174 72.3125 338.039 71.7656C335.904 71.1927 334.094 70.3594 332.609 69.2656C329.589 67.0521 328.078 63.849 328.078 59.6562C328.078 55.9062 329.927 52.7812 333.625 50.2812C337.635 47.5729 343.078 46.2188 349.953 46.2188L351.516 46.2578C351.828 46.2839 352.18 46.3099 352.57 46.3359C352.961 46.3359 353.312 46.362 353.625 46.4141C353.417 42.2474 351.62 39.8125 348.234 39.1094C347.115 38.875 345.917 38.7578 344.641 38.7578C343.391 38.7578 342.154 38.875 340.93 39.1094C339.732 39.3177 338.56 39.6042 337.414 39.9688C334.888 40.776 333.078 41.7005 331.984 42.7422L331.867 42.6641L330.695 34.0312C335.305 31.6094 340.344 30.3984 345.812 30.3984C354.302 30.3984 359.732 33.4583 362.102 39.5781C362.857 41.5312 363.234 43.7318 363.234 46.1797V60.3203C363.234 63.3411 364.302 65.3984 366.438 66.4922L359.367 72.9766C357.883 72.1953 356.685 71.0625 355.773 69.5781ZM353.664 53.4453C352.961 53.3151 352.232 53.25 351.477 53.25H349.914C344.159 53.25 340.5 54.526 338.938 57.0781C338.469 57.8333 338.234 58.6276 338.234 59.4609C338.234 60.2943 338.378 61.0365 338.664 61.6875C338.977 62.3125 339.484 62.8333 340.188 63.25C341.542 64.0312 343.547 64.4219 346.203 64.4219C348.885 64.4219 351.385 63.7839 353.703 62.5078C353.677 62.2214 353.664 61.9219 353.664 61.6094V53.4453ZM373.508 51.9219C373.508 48.875 374.029 46.0495 375.07 43.4453C376.112 40.8411 377.583 38.5625 379.484 36.6094C383.547 32.4688 388.859 30.3984 395.422 30.3984C400.969 30.3984 405.422 32.2344 408.781 35.9062C412.089 39.4479 413.742 43.901 413.742 49.2656C413.742 51.3229 413.586 52.7292 413.273 53.4844C410.669 54.2135 405.37 54.5781 397.375 54.5781H383.625C384.302 57.3646 385.878 59.5391 388.352 61.1016C390.826 62.638 394.042 63.4062 398 63.4062C402.141 63.4062 405.695 62.6641 408.664 61.1797C409.445 60.7891 410.031 60.4245 410.422 60.0859C410.37 61.1797 410.305 62.2995 410.227 63.4453L409.797 69.5391C407.818 70.8932 404.615 71.8307 400.188 72.3516C398.885 72.5078 397.635 72.5859 396.438 72.5859C389.823 72.5859 384.354 70.6589 380.031 66.8047C375.682 62.9245 373.508 57.9635 373.508 51.9219ZM403.352 47C402.284 41.401 399.237 38.6016 394.211 38.6016C390.253 38.6016 387.245 40.3073 385.188 43.7188C384.562 44.7604 384.081 45.9062 383.742 47.1562C384.367 47.1823 385.135 47.2083 386.047 47.2344H388.938C389.901 47.2604 390.826 47.2734 391.711 47.2734H393.938C395.266 47.2734 396.568 47.2604 397.844 47.2344L401.047 47.1172C401.906 47.0911 402.674 47.0521 403.352 47ZM441.75 35.6719C441.542 36.4271 441.438 38.3281 441.438 41.375V44.8125H432.023V72H422.453V44.8125H416.711C416.737 43.0938 416.763 41.5703 416.789 40.2422L416.867 36.0625V35.6719H422.453V33.25C422.453 27 423.911 21.974 426.828 18.1719C429.875 14.2396 434.068 12.2734 439.406 12.2734C441.672 12.2734 443.169 12.4297 443.898 12.7422L443.938 22.5469L443.859 22.7422C442.87 21.7526 441.607 21.2578 440.07 21.2578C438.56 21.2578 437.336 21.5182 436.398 22.0391C435.461 22.5339 434.667 23.25 434.016 24.1875C432.688 26.0625 432.023 28.6276 432.023 31.8828V35.6719H441.75ZM468.469 35.6719C468.26 36.4271 468.156 38.3281 468.156 41.375V44.8125H458.742V72H449.172V44.8125H443.43C443.456 43.0938 443.482 41.5703 443.508 40.2422L443.586 36.0625V35.6719H449.172V33.25C449.172 27 450.63 21.974 453.547 18.1719C456.594 14.2396 460.786 12.2734 466.125 12.2734C468.391 12.2734 469.888 12.4297 470.617 12.7422L470.656 22.5469L470.578 22.7422C469.589 21.7526 468.326 21.2578 466.789 21.2578C465.279 21.2578 464.055 21.5182 463.117 22.0391C462.18 22.5339 461.385 23.25 460.734 24.1875C459.406 26.0625 458.742 28.6276 458.742 31.8828V35.6719H468.469Z" fill="black"/>
</svg>
