<svg width="707"
     height="114"
     viewBox="0 0 707 114"
     id="logo"
     xmlns="http://www.w3.org/2000/svg">
      <path
            d="M52.088 54.216C52.088 55.496 50.2533 57.3733 46.584 59.848C42.9147 62.3227 37.1547 65.864 29.304 70.472C24.5253 73.2027 21.0693 75.2507 18.936 76.616C21.3253 78.664 24.0987 80.6267 27.256 82.504C30.4133 84.3813 32.248 85.448 32.76 85.704C37.7093 88.4347 40.184 90.184 40.184 90.952C40.184 93.0853 39.16 94.9627 37.112 96.584C35.1493 98.2053 32.9307 99.016 30.456 99.016C29.176 99.016 25.976 97.5227 20.856 94.536C15.736 91.5493 11.0427 88.3493 6.776 84.936C2.50933 81.4373 0.376 78.792 0.376 77C0.376 75.3787 1.144 73.928 2.68 72.648C4.216 71.2827 6.904 69.448 10.744 67.144C15.1813 64.4987 18.68 62.28 21.24 60.488C27.128 56.3067 31.224 53.4907 33.528 52.04C35.832 50.504 37.5387 49.5653 38.648 49.224C39.8427 48.7973 41.2507 48.584 42.872 48.584C45.3467 48.584 47.48 49.0533 49.272 49.992C51.1493 50.9307 52.088 52.3387 52.088 54.216ZM100.938 13L100.312 31.9375H96.3125C95.2292 31.9375 94.3542 32.1042 93.6875 32.4375C93.0625 32.7292 92.75 33.5417 92.75 34.875V69.3125C92.75 69.5208 92.7708 69.7083 92.8125 69.875C92.8542 70.0417 93.0417 70.0625 93.375 69.9375C100.917 65.7292 105.062 63.2708 105.812 62.5625C106.562 61.8125 107.125 61.25 107.5 60.875C107.917 60.5 108.25 60.0833 108.5 59.625C109.083 58.75 109.375 57.4583 109.375 55.75V45.25L129.875 45L129.5 64.1875H117.562C114.688 64.1875 112.354 64.5417 110.562 65.25L124.625 89.1875C125.125 90.0208 125.854 90.4375 126.812 90.4375H133.688L134.125 109L113 109.125L113.25 90.6875H119.125C119.75 90.6875 119.792 90.2708 119.25 89.4375L106.562 67.125L93.125 75.4375C92.875 75.5625 92.75 75.7917 92.75 76.125V85.4375C92.75 86.7292 93.1458 87.9167 93.9375 89C94.7292 90.0417 95.9583 90.5625 97.625 90.5625H102.125L102 109H79.5625L80.0625 90.4375H84.1875C85.8542 90.4375 87 89.7083 87.625 88.25C87.875 87.7083 88 87.0208 88 86.1875V35.25C88 33.9167 87.6875 33.0833 87.0625 32.75C86.4792 32.375 85.7708 32.1875 84.9375 32.1875H79.6875V13.125L100.938 13ZM162.895 110.28C158.287 110.28 154.148 109.427 150.479 107.72C146.895 105.928 144.036 103.539 141.903 100.552C139.77 97.5653 138.703 94.1947 138.703 90.44C138.703 84.3813 141.178 79.6027 146.127 76.104C151.076 72.52 157.647 70.088 165.839 68.808L181.839 66.376V64.584C181.839 61.512 181.199 59.1653 179.919 57.544C178.639 55.9227 176.292 55.112 172.879 55.112C170.49 55.112 168.527 55.5813 166.991 56.52C165.54 57.4587 164.388 58.7387 163.535 60.36C162.767 61.4693 161.7 62.024 160.335 62.024H145.999C145.06 62.024 144.335 61.768 143.823 61.256C143.311 60.6587 143.098 59.976 143.183 59.208C143.183 57.672 143.738 55.9227 144.847 53.96C146.042 51.912 147.834 49.9067 150.223 47.944C152.612 45.9813 155.684 44.36 159.439 43.08C163.194 41.8 167.716 41.16 173.007 41.16C178.554 41.16 183.29 41.8 187.215 43.08C191.14 44.36 194.298 46.152 196.687 48.456C199.162 50.76 200.996 53.4907 202.191 56.648C203.386 59.72 203.983 63.1333 203.983 66.888V105.8C203.983 106.739 203.642 107.507 202.959 108.104C202.362 108.701 201.636 109 200.783 109H185.935C184.996 109 184.228 108.701 183.631 108.104C183.034 107.507 182.735 106.739 182.735 105.8V101.32C181.626 102.941 180.132 104.435 178.255 105.8C176.378 107.165 174.159 108.232 171.599 109C169.124 109.853 166.223 110.28 162.895 110.28ZM168.911 95.688C171.386 95.688 173.604 95.176 175.567 94.152C177.615 93.0427 179.194 91.3787 180.303 89.16C181.498 86.856 182.095 83.9973 182.095 80.584V78.792L171.215 80.712C167.204 81.3947 164.26 82.4613 162.383 83.912C160.591 85.2773 159.695 86.8987 159.695 88.776C159.695 90.2267 160.122 91.464 160.975 92.488C161.828 93.512 162.938 94.3227 164.303 94.92C165.668 95.432 167.204 95.688 168.911 95.688ZM223.291 109C222.438 109 221.712 108.744 221.115 108.232C220.603 107.635 220.347 106.909 220.347 106.056V45.384C220.347 44.5307 220.603 43.848 221.115 43.336C221.712 42.7387 222.438 42.44 223.291 42.44H229.051C229.904 42.44 230.587 42.7387 231.099 43.336C231.696 43.848 231.995 44.5307 231.995 45.384V49.864C233.958 47.2187 236.432 45.128 239.419 43.592C242.406 41.9707 245.99 41.16 250.171 41.16C259.814 41.0747 266.64 45 270.651 52.936C272.614 49.352 275.472 46.4933 279.227 44.36C282.982 42.2267 287.248 41.16 292.027 41.16C296.464 41.16 300.475 42.184 304.059 44.232C307.728 46.28 310.587 49.3947 312.635 53.576C314.768 57.672 315.835 62.8347 315.835 69.064V106.056C315.835 106.909 315.536 107.635 314.939 108.232C314.427 108.744 313.744 109 312.891 109H306.875C306.022 109 305.296 108.744 304.699 108.232C304.187 107.635 303.931 106.909 303.931 106.056V70.216C303.931 65.4373 303.248 61.6827 301.883 58.952C300.518 56.2213 298.683 54.3013 296.379 53.192C294.075 52.0827 291.558 51.528 288.827 51.528C286.608 51.528 284.347 52.0827 282.043 53.192C279.739 54.3013 277.819 56.2213 276.283 58.952C274.832 61.6827 274.107 65.4373 274.107 70.216V106.056C274.107 106.909 273.808 107.635 273.211 108.232C272.699 108.744 272.016 109 271.163 109H265.147C264.294 109 263.568 108.744 262.971 108.232C262.459 107.635 262.203 106.909 262.203 106.056V70.216C262.203 65.4373 261.478 61.6827 260.027 58.952C258.576 56.2213 256.699 54.3013 254.395 53.192C252.091 52.0827 249.659 51.528 247.099 51.528C244.88 51.528 242.619 52.0827 240.315 53.192C238.011 54.3013 236.091 56.2213 234.555 58.952C233.104 61.6827 232.379 65.3947 232.379 70.088V106.056C232.379 106.909 232.08 107.635 231.483 108.232C230.971 108.744 230.288 109 229.435 109H223.291ZM350.865 110.28C344.806 110.28 339.985 108.488 336.401 104.904C332.817 101.32 331.025 96.4987 331.025 90.44C331.025 84.2107 333.03 79.304 337.041 75.72C341.137 72.0507 346.598 70.216 353.425 70.216C357.35 70.216 360.849 70.7707 363.921 71.88C366.993 72.9893 369.468 74.5253 371.345 76.488V66.76C371.345 60.5307 369.681 55.5813 366.353 51.912C363.11 48.1573 358.716 46.28 353.169 46.28C346.684 46.28 340.838 49.0107 335.633 54.472C333.926 54.472 333.073 53.704 333.073 52.168C333.073 51.2293 334.012 49.992 335.889 48.456C337.852 46.8347 340.412 45.4267 343.569 44.232C346.726 43.0373 350.097 42.44 353.681 42.44C360.422 42.44 365.841 44.6587 369.937 49.096C374.033 53.5333 376.081 59.4213 376.081 66.76V105.032C376.081 108.019 375.057 109.512 373.009 109.512C372.497 109.512 371.942 109.341 371.345 109V100.808C368.956 103.709 365.969 106.013 362.385 107.72C358.801 109.427 354.961 110.28 350.865 110.28ZM350.353 106.44C353.766 106.44 357.094 105.757 360.337 104.392C363.58 102.941 366.225 100.936 368.273 98.376C370.321 95.816 371.345 92.872 371.345 89.544V85.32C371.345 81.6507 369.51 78.8773 365.841 77C362.257 75.0373 357.905 74.056 352.785 74.056C347.58 74.056 343.441 75.5493 340.369 78.536C337.382 81.5227 335.889 85.5333 335.889 90.568C335.889 95.432 337.169 99.3147 339.729 102.216C342.374 105.032 345.916 106.44 350.353 106.44ZM422.522 110.28C412.453 110.28 404.431 107.549 398.458 102.088C392.485 96.6267 389.37 88.52 389.114 77.768C389.114 77.1707 389.114 76.4027 389.114 75.464C389.114 74.5253 389.114 73.8 389.114 73.288C389.37 66.5467 390.863 60.7867 393.594 56.008C396.41 51.144 400.25 47.4747 405.114 45C410.063 42.44 415.823 41.16 422.394 41.16C429.903 41.16 436.09 42.6533 440.954 45.64C445.903 48.6267 449.615 52.68 452.09 57.8C454.565 62.92 455.802 68.7653 455.802 75.336V78.408C455.802 79.3467 455.461 80.1147 454.778 80.712C454.181 81.3093 453.455 81.608 452.602 81.608H411.642C411.642 81.6933 411.642 81.8213 411.642 81.992C411.642 82.1627 411.642 82.3333 411.642 82.504C411.727 84.9787 412.154 87.24 412.922 89.288C413.69 91.336 414.885 92.9573 416.506 94.152C418.127 95.3467 420.09 95.944 422.394 95.944C424.101 95.944 425.509 95.688 426.618 95.176C427.813 94.5787 428.794 93.9387 429.562 93.256C430.33 92.488 430.927 91.848 431.354 91.336C432.122 90.4827 432.719 89.9707 433.146 89.8C433.658 89.544 434.426 89.416 435.45 89.416H451.322C452.175 89.416 452.858 89.672 453.37 90.184C453.967 90.6107 454.223 91.2507 454.138 92.104C454.053 93.5547 453.327 95.304 451.962 97.352C450.597 99.4 448.591 101.448 445.946 103.496C443.386 105.459 440.143 107.08 436.218 108.36C432.293 109.64 427.727 110.28 422.522 110.28ZM411.642 68.936H433.274V68.68C433.274 65.9493 432.847 63.56 431.994 61.512C431.226 59.464 429.989 57.8853 428.282 56.776C426.661 55.6667 424.698 55.112 422.394 55.112C420.09 55.112 418.127 55.6667 416.506 56.776C414.97 57.8853 413.775 59.464 412.922 61.512C412.069 63.56 411.642 65.9493 411.642 68.68V68.936ZM482.138 51.528L482.778 48.456L479.962 17.608C486.959 7.624 495.791 1.77866 506.458 0.0719986C514.223 1.43733 520.111 4.424 524.122 9.032C530.607 3.82666 537.391 0.839994 544.474 0.0719986C555.909 2.29066 562.991 9.032 565.722 20.296C564.357 23.112 561.967 25.0747 558.554 26.184C555.226 27.2933 551.642 27.3787 547.802 26.44C547.546 22.4293 546.906 19.3147 545.882 17.096C544.943 14.792 543.237 12.5733 540.762 10.44C537.349 11.208 534.533 12.7867 532.314 15.176C532.826 22.856 532.485 34.12 531.29 48.968L557.018 45.64C560.005 48.1147 559.962 51.912 556.89 57.032L530.522 57.8C529.071 73.3307 527.066 89.8 524.506 107.208C520.922 108.829 516.869 109.299 512.346 108.616C507.823 107.933 504.837 106.397 503.386 104.008C509.103 87.7947 513.498 72.52 516.57 58.184L509.914 58.44L494.298 59.976C492.933 74.3973 490.927 90.1413 488.282 107.208C484.783 108.829 480.773 109.299 476.25 108.616C471.727 107.933 468.741 106.397 467.29 104.008C472.069 90.8667 476.293 76.6587 479.962 61.384L463.706 63.048C460.719 59.5493 460.762 55.6667 463.834 51.4L482.138 51.528ZM508.89 51.784L518.234 50.632L518.618 48.456L516.314 20.168H516.186C514.138 14.9627 510.298 11.72 504.666 10.44C501.679 11.1227 498.991 12.7013 496.602 15.176C497.114 23.7093 496.645 35.8693 495.194 51.656L508.89 51.784ZM590.689 113.608C588.3 113.608 586.422 113.139 585.057 112.2C583.692 111.261 583.009 109.896 583.009 108.104C583.009 106.568 591.116 95.3467 607.329 74.44C615.692 63.5173 624.524 51.3147 633.825 37.832C637.494 32.456 640.225 28.5733 642.017 26.184C643.894 23.7947 645.601 22.0027 647.137 20.808C648.758 19.6133 650.422 19.016 652.129 19.016C654.348 19.016 656.012 19.5707 657.121 20.68C658.316 21.7893 658.913 23.1973 658.913 24.904C658.913 26.5253 658.444 28.0187 657.505 29.384L647.521 43.72C645.473 46.6213 642.87 50.12 639.713 54.216C627.254 70.856 616.758 84.936 608.225 96.456C603.958 102.259 600.502 106.568 597.857 109.384C595.297 112.2 592.908 113.608 590.689 113.608ZM706.157 73.928C705.304 76.5733 699.928 80.456 690.029 85.576C680.216 90.6107 670.146 95.304 659.821 99.656C658.882 100.424 657.133 100.808 654.573 100.808C651.672 100.808 649.538 100.424 648.173 99.656C646.893 98.888 646.253 97.6933 646.253 96.072C646.253 95.048 646.68 94.024 647.533 93C648.472 91.8907 649.752 90.952 651.373 90.184L685.677 73.416C679.533 69.9173 673.773 66.2907 668.397 62.536C663.021 58.7813 660.333 56.0933 660.333 54.472C660.333 52.7653 661.101 51.2293 662.637 49.864C664.173 48.4987 666.093 47.816 668.397 47.816C669.677 47.816 671.085 48.072 672.621 48.584C674.242 49.096 675.65 49.864 676.845 50.888C681.197 54.472 686.573 58.3547 692.973 62.536L701.165 68.296C702.872 69.064 704.109 69.9173 704.877 70.856C705.73 71.7093 706.157 72.7333 706.157 73.928Z" />
</svg>